<svg xmlns="http://www.w3.org/2000/svg" width="192" height="192" viewBox="0 0 96 96" role="img" aria-labelledby="title desc">
  <title id="title">Kompas znalosti – ikona</title>
  <desc id="desc">Kruhový kompas s jehlou nad stylizovanou otevřenou knihou</desc>
  <g fill="none" stroke="currentColor" stroke-width="2" stroke-linecap="round" stroke-linejoin="round">
    <!-- Vnější kruh kompasu -->
    <circle cx="48" cy="40" r="20"/>
    <!-- Značky světových stran -->
    <path d="M48 18v4M48 58v4M70 40h-4M26 40h-4"/>
    <!-- Jemné meziticky -->
    <path d="M61.3 26.7l-2.8 2.8M34.7 53.3l-2.8 2.8M61.3 53.3l-2.8-2.8M34.7 26.7l-2.8-2.8"/>
    <!-- Jehla kompasu -->
    <path d="M48 32l8 8-8 8-8-8 8-8z"/>
    <circle cx="48" cy="40" r="2"/>
    <!-- Kniha pod kompasem -->
    <path d="M20 66c7-3 14-4 20-4 6 0 9 1 8 1s2-1 8-1c6 0 13 1 20 4"/>
    <path d="M20 66v12c7-3 14-4 20-4 6 0 9 1 8 1s2-1 8-1c6 0 13 1 20 4V66"/>
    <path d="M48 63v12"/>
  </g>
</svg>
